<?xml version="1.0" standalone="no"?>
<!DOCTYPE svg PUBLIC "-//W3C//DTD SVG 1.1//EN" "http://www.w3.org/Graphics/SVG/1.1/DTD/svg11.dtd" >
<svg xmlns="http://www.w3.org/2000/svg">
<metadata>
Created by FontForge 20120731 at Fri Jul 15 09:18:18 2016
 By admin
</metadata>
<defs>
<font id="iconfont" horiz-adv-x="1024" >
  <font-face 
    font-family="iconfont"
    font-weight="500"
    font-stretch="normal"
    units-per-em="1024"
    panose-1="2 0 6 3 0 0 0 0 0 0"
    ascent="896"
    descent="-128"
    x-height="792"
    bbox="0 -224 1088 896"
    underline-thickness="50"
    underline-position="-100"
    unicode-range="U+0078-E62E"
  />
<missing-glyph horiz-adv-x="374" 
d="M34 0v682h272v-682h-272zM68 34h204v614h-204v-614z" />
    <glyph glyph-name=".notdef" horiz-adv-x="374" 
d="M34 0v682h272v-682h-272zM68 34h204v614h-204v-614z" />
    <glyph glyph-name=".null" horiz-adv-x="0" 
 />
    <glyph glyph-name="nonmarkingreturn" horiz-adv-x="341" 
 />
    <glyph glyph-name="x" unicode="x" horiz-adv-x="1001" 
d="M281 543q-27 -1 -53 -1h-83q-18 0 -36.5 -6t-32.5 -18.5t-23 -32t-9 -45.5v-76h912v41q0 16 -0.5 30t-0.5 18q0 13 -5 29t-17 29.5t-31.5 22.5t-49.5 9h-133v-97h-438v97zM955 310v-52q0 -23 0.5 -52t0.5 -58t-10.5 -47.5t-26 -30t-33 -16t-31.5 -4.5q-14 -1 -29.5 -0.5
t-29.5 0.5h-32l-45 128h-439l-44 -128h-29h-34q-20 0 -45 1q-25 0 -41 9.5t-25.5 23t-13.5 29.5t-4 30v167h911zM163 247q-12 0 -21 -8.5t-9 -21.5t9 -21.5t21 -8.5q13 0 22 8.5t9 21.5t-9 21.5t-22 8.5zM316 123q-8 -26 -14 -48q-5 -19 -10.5 -37t-7.5 -25t-3 -15t1 -14.5
t9.5 -10.5t21.5 -4h37h67h81h80h64h36q23 0 34 12t2 38q-5 13 -9.5 30.5t-9.5 34.5q-5 19 -11 39h-368zM336 498v228q0 11 2.5 23t10 21.5t20.5 15.5t34 6h188q31 0 51.5 -14.5t20.5 -52.5v-227h-327z" />
    <glyph glyph-name="uniE600" unicode="&#xe600;" 
d="M74 -200q-15 0 -25.5 10.5t-10.5 25.5v927q0 15 10.5 25t25.5 10h873q14 0 24.5 -10t10.5 -25v-483v-2q-1 -13 -11.5 -23t-24.5 -10q-12 0 -21.5 7.5t-12.5 19.5h-1v10v436q0 7 -1.5 8.5t-7.5 1.5h-783q-7 0 -8.5 -1.5t-1.5 -8.5v-838q0 -6 1.5 -7.5t8.5 -1.5h522v-7
q15 -10 15 -28q0 -19 -16 -30v-6h-566zM746 -147q-14 0 -25 14l-100 134q-15 24 5 39q8 6 17 6q12 0 22 -10l83 -66l215 198q10 9 21 9q9 0 16 -6q16 -13 0 -36l-230 -269q-10 -13 -24 -13zM234.5 73q-19.5 0 -33.5 14t-14 34t14 33.5t33.5 13.5t33.5 -13.5t14 -33.5
t-14 -34t-33.5 -14zM349 87q-15 0 -25 10t-10 25t10 25t25 10h273q14 0 24.5 -10t10.5 -25t-10.5 -25t-24.5 -10h-273zM234.5 268q-19.5 0 -33.5 13.5t-14 33.5t14 33.5t33.5 13.5t33.5 -13.5t14 -33.5t-14 -33.5t-33.5 -13.5zM349 282q-15 0 -25 10t-10 24.5t10 25t25 10.5
h409q15 0 25 -10.5t10 -25t-10 -24.5t-25 -10h-409zM229.5 464q-19.5 0 -33.5 14t-14 33.5t14 33.5t33.5 14t33.5 -14t14 -33.5t-14 -33.5t-33.5 -14zM349 476q-15 0 -25 10.5t-10 25t10 25t25 10.5h461q14 0 24.5 -10.5t10.5 -25t-10.5 -25t-24.5 -10.5h-461z" />
    <glyph glyph-name="uniE601" unicode="&#xe601;" 
d="M511.5 827q-90.5 0 -172.5 -35t-141.5 -94.5t-95 -142t-35.5 -173t35.5 -172.5t95 -141.5t141.5 -95t172.5 -35.5t173 35.5t142 95t94.5 141.5t35 172.5t-35 173t-94.5 142t-142 94.5t-173 35zM511.5 -6q-105.5 0 -195 52t-141.5 141.5t-52 195t52 195.5t141.5 142
t195 52t195.5 -52t142 -142t52 -195.5t-52 -195t-142 -141.5t-195.5 -52zM647 383l-232 -179v358z" />
    <glyph glyph-name="uniE602" unicode="&#xe602;" 
d="M410.5 503q-16.5 0 -28 -11.5t-11.5 -28.5v-309q0 -17 11.5 -28.5t28 -11.5t28 11.5t11.5 28.5v309q0 17 -11.5 28.5t-28 11.5zM946 488q-35 83 -99 147t-147 99q-85 36 -179 36t-180 -36q-83 -35 -147 -99t-99 -147q-36 -86 -36 -179.5t36 -179.5q35 -83 99 -147
t147 -99q86 -36 180 -36t179 36q83 35 147 99t99 147q36 86 36 179.5t-36 179.5zM675 -58q-74 -31 -154.5 -31t-154.5 31q-71 31 -126 86t-85 126q-32 74 -32 154.5t32 154.5q30 71 85 126t126 86q74 31 154.5 31t154.5 -31q72 -31 127 -86t85 -126q31 -74 31 -154.5
t-31 -154.5q-30 -71 -85 -126t-127 -86zM631 503q-16 0 -27.5 -11.5t-11.5 -28.5v-309q0 -17 11.5 -28.5t27.5 -11.5t27.5 11.5t11.5 28.5v309q0 17 -11.5 28.5t-27.5 11.5z" />
    <glyph glyph-name="uniE603" unicode="&#xe603;" 
d="M512 -128q-104 0 -199 40.5t-163.5 109t-109 163t-40.5 198.5t40.5 199t109 163.5t163.5 109t199 40.5t198.5 -40.5t163 -109t109 -163.5t40.5 -199t-40.5 -198.5t-109 -163t-163 -109t-198.5 -40.5zM511.5 863q-97.5 0 -186 -38t-153 -102.5t-102.5 -153t-38 -186
t38 -186.5t102.5 -153t153 -102t186 -38t186.5 38t153 102t102 153t38 186.5t-38 186t-102 153t-153 102.5t-186.5 38zM544 128h-64v223h-224v64h224v224h64v-224h223v-64h-223v-223z" />
    <glyph glyph-name="uniE604" unicode="&#xe604;" 
d="M512 -125q-116 0 -213.5 57t-154.5 154.5t-57 213t57 213.5t154.5 155t213.5 57t213.5 -57t154.5 -155t57 -213.5t-57 -213t-154.5 -154.5t-213.5 -57zM512 672q-101 0 -186.5 -50t-135.5 -135.5t-50 -186.5t50 -186.5t135.5 -135.5t186.5 -50t186.5 50t135.5 135.5
t50 186.5t-50 186.5t-135.5 135.5t-186.5 50zM698 273h-281l109 -109q8 -8 8 -19t-8 -18.5t-19 -7.5t-18 7l-151 151q-9 9 -7 23q-2 14 7 23l151 151q7 7 18 7t19 -7.5t8 -18.5t-8 -19l-109 -109h281q11 0 19 -8t8 -19t-8 -19t-19 -8z" />
    <glyph glyph-name="uniE605" unicode="&#xe605;" 
d="M512 800q-139 0 -257 -68.5t-186.5 -186.5t-68.5 -257t68.5 -257t186.5 -186.5t257 -68.5t257 68.5t186.5 186.5t68.5 257t-68.5 257t-186.5 186.5t-257 68.5zM512 -160q-122 0 -225 60t-163 163t-60 225t60 225t163 163t225 60t225 -60t163 -163t60 -225t-60 -225
t-163 -163t-225 -60zM784 288h-240v288q0 14 -9.5 23t-22.5 9t-22.5 -9t-9.5 -23v-320v0q0 -12 8 -21q9 -11 24 -11h272q14 0 23 9.5t9 22.5t-9 22.5t-23 9.5z" />
    <glyph glyph-name="uniE606" unicode="&#xe606;" 
d="M861 639q4 -8 6 -18.5t2 -22t-4 -23.5t-14 -22q-11 -11 -19.5 -19t-14.5 -14q-7 -8 -14 -13l-167 167q11 10 26 24q14 14 24 22q13 10 26.5 14t26.5 3.5t25 -4t21 -8.5q18 -10 41 -34.5t35 -51.5zM165 203q6 6 25.5 26t49.5 49l65 66l72 72l192 192l167 -168l-192 -192
l-71 -72q-36 -35 -64.5 -64t-47.5 -48t-22 -21q-9 -8 -20.5 -17t-24.5 -15q-12 -6 -36.5 -15t-50.5 -17.5t-50 -14.5t-35 -8q-25 -3 -33 7t-4 33q2 13 8.5 36.5t14 49t15 47t11.5 29.5q5 12 12 22.5t19 22.5zM165 203zM463 35h80v-80h-80v80zM626 35h80v-80h-80v80zM789 35
h80v-80h-80v80z" />
    <glyph glyph-name="uniE607" unicode="&#xe607;" 
d="M512 748q-122 0 -225 -60t-163 -163t-60 -225t60 -225t163 -163t225 -60t225 60t163 163t60 225t-60 225t-163 163t-225 60zM437 76l-224 224l75 75l149 -150l299 299l75 -75zM437 76z" />
    <glyph glyph-name="uniE608" unicode="&#xe608;" 
d="M341 328h86v-85h-86v85zM341 499h86v-85h-86v85zM142 499h86v-85h-86v85zM142 670h86v-86h-86v86zM341 -13h86v-85h-86v85zM341 158h86v-86h-86v86zM142 328h86v-85h-86v85zM341 670h86v-86h-86v86zM142 158h86v-86h-86v86zM825 328h85v-85h-85v85zM142 -13h86v-85h-86
v85zM825 -13h85v-85h-85v85zM825 158h85v-86h-85v86zM626 -13h85v-85h-85v85zM971 471h-402v284v57h-53h-463h-43h-10v-1024h28h25h463h53h402h25h28v683h-10h-43zM516 -155h-463v910h463v-910zM971 -155h-402v569h402v-569zM626 158h85v-86h-85v86zM626 328h85v-85h-85v85z
" />
    <glyph glyph-name="uniE609" unicode="&#xe609;" 
d="M506 792h6h1h4h1h1q2 -1 4 -1h1q76 -6 132 -57q3 -2 4 -4q4 -3 8 -7q1 -2 3 -4q52 -57 57 -132l1 -1v-5v-1v-4v-1v-6v-6v-1v-4v-1v0v-5l-1 -1q-5 -76 -57 -132l-1 -1v0v-1q-2 -1 -2 -2l-8 -8q-1 -1 -3 -2q0 -1 -1 -1q-18 -17 -39 -29q-26 -14 -21 -43q1 -13 10 -22.5
t22 -12.5q73 -17 130 -60q2 -1 3 -2q71 -53 112 -131q23 -45 32 -73q8 -26 10 -55h-806q2 35 19 76v1q5 13 11 26v1q28 64 78 113q51 52 118 80q28 12 58 19q13 3 22 13t10 23q4 30 -22 43q-25 13 -47 33v1h-1q-1 1 -3 2q-4 4 -7 8l-3 3l-1 1q-51 57 -57 132v1v5h-1v1v4v1v6
v6v1v4v1h1v5v1q3 38 18.5 73t42.5 63l2 2l1 1v0l1 1l1 1v1l2 1q28 27 63 42.5t74 18.5v0q2 1 5 1h1h4h1h1h5zM506 834h-7h-1h-5h-1h-1h-5h-1q-94 -8 -162 -73l-3 -3l-2 -2l-1 -1l-3 -3q-65 -68 -73 -162v-1v-5v-1v-6v-1v-7v-7v-1v-6v-1v-5v-1q7 -90 69 -158v0q2 -3 4 -4
q4 -5 9 -9l4 -4h1v-1q25 -23 55 -38q-33 -8 -64 -22q-75 -31 -132 -89q-55 -55 -87 -126q-6 -14 -12 -29q-23 -58 -23 -114q0 -8 6 -14t15 -6h3h849q9 0 15 6t6 15v5v0q-2 46 -12.5 80.5t-35.5 82.5q-46 88 -125 147q-1 0 -2 1q-64 48 -146 67q25 15 47 34q0 1 1 1q3 3 3 4
q5 4 9 9l3 3q1 0 1 0.5t1 1.5q61 67 68 157v1v5v1q0 3 1 6v1v7v7v1q-1 3 -1 6v1v5v1q-7 90 -68 157q0 1 -1 1l-4 4q-4 5 -9 9q-1 2 -4 4v1q-68 61 -158 68h-6h-1h-6h-1h-7v0zM506 834z" />
    <glyph glyph-name="uniE60A" unicode="&#xe60a;" 
d="M65 342h405v405h-405v-405zM147 666h242v-242h-242v242zM554 747v-405h405v405h-405zM877 424h-243v242h243v-242zM65 -146h405v405h-405v-405zM147 178h242v-242h-242v242zM958 17v243h-80v-80h-82v79h-243v-405h81v243h81v-80h243zM716 -146h80v80h-80v-80zM879 -145
h79v79h-79v-79zM228 505h80v80h-80v-80zM796 585h-80v-80h80v80zM228 17h80v80h-80v-80z" />
    <glyph glyph-name="uniE60B" unicode="&#xe60b;" 
d="M127 627h766v-487l64 -56v571q0 24 -17 41t-41 17h-778q-24 0 -41 -17t-17 -41v-707q0 -24 17 -41t41 -17h605l-51 69h-548v668zM937 -10l-158 134q-24 22 -48 21q60 70 60 162q0 104 -73 177t-176.5 73t-177 -73t-73.5 -176.5t73.5 -177t176.5 -73.5q92 0 162 60
q-1 -23 21 -48l134 -157q17 -19 41.5 -20.5t42 15.5t16 41.5t-20.5 41.5zM541 141q-69 0 -117.5 48.5t-48.5 117.5t48.5 118t117.5 49t118 -49t49 -118t-49 -117.5t-118 -48.5z" />
    <glyph glyph-name="uniE60C" unicode="&#xe60c;" horiz-adv-x="1088" 
d="M733 -111h-622v604h214v207h408v-144h99v256h-583l-249 -250v-774h832v256h-99v-155zM416 403l-109 -103l269 -256l512 512l-79 78l-433 -398z" />
    <glyph glyph-name="uniE60D" unicode="&#xe60d;" horiz-adv-x="1025" 
d="M447 832h-384v-384h384v384zM383 512h-255v256h255v-256zM575 -64h385v384h-385v-384zM63 -64h385v384h-385v-384zM128 256h254v-256h-254v256zM575 832v-384h385v384h-385zM894 512h-255v256h255v-256z" />
    <glyph glyph-name="uniE60E" unicode="&#xe60e;" horiz-adv-x="1056" 
d="M862 725q-69 69 -158.5 105t-180.5 36t-181 -36t-159 -105t-105 -159t-36 -180.5t36 -180.5t105 -159q92 -92 216 -125t247.5 0t215.5 125t125 215.5t0 247.5t-125 216zM788 400l-280 -280q-20 -20 -48.5 -20t-48.5 20l-148 148q-20 21 -20 49t20 49l16 15q20 21 48.5 21
t48.5 -20l83 -84l216 215q20 21 48.5 20.5t48.5 -20.5l16 -15q20 -21 20 -49t-20 -49z" />
    <glyph glyph-name="uniE60F" unicode="&#xe60f;" 
d="M512 597q-88 0 -150.5 -62.5t-62.5 -150.5t62.5 -150.5t150.5 -62.5t150.5 62.5t62.5 150.5t-62.5 150.5t-150.5 62.5zM512 811q-116 0 -214.5 -57t-155.5 -155.5t-57 -214.5t57 -214.5t155.5 -155.5t214.5 -57t214.5 57t155.5 155.5t57 214.5t-57 214.5t-155.5 155.5
t-214.5 57zM512 43q-93 0 -171.5 45.5t-124 124t-45.5 171.5t45.5 171.5t124 124t171.5 45.5t171.5 -45.5t124 -124t45.5 -171.5t-45.5 -171.5t-124 -124t-171.5 -45.5z" />
    <glyph glyph-name="uniE610" unicode="&#xe610;" 
d="M640 61q0 -7 -3.5 -12.5t-7.5 -5.5h-234q-4 0 -7.5 5.5t-3.5 12.5v669q0 8 3.5 13t7.5 5h234q4 0 7.5 -5t3.5 -13v-669zM814 238q8 0 9.5 -4t-2.5 -10l-298 -357q-5 -6 -11.5 -6t-10.5 6l-298 357q-5 6 -3 10t9 4h605z" />
    <glyph glyph-name="uniE611" unicode="&#xe611;" 
d="M768 -149h-578q-40 0 -68.5 28.5t-28.5 68.5v642q0 40 28.5 68.5t68.5 28.5h450q13 0 22.5 -9.5t9.5 -23t-9.5 -23t-22.5 -9.5h-450q-14 0 -23 -9.5t-9 -22.5v-642q0 -14 9 -23.5t23 -9.5h578q13 0 22.5 9.5t9.5 23.5v514q0 13 9.5 22.5t23 9.5t22.5 -9.5t9 -22.5v-514
q0 -40 -28 -68.5t-68 -28.5zM579 365q-13 0 -22.5 9.5t-9.5 23t10 22.5l319 319q9 10 22.5 10t23 -9.5t9.5 -23t-10 -22.5l-319 -319q-9 -10 -23 -10zM447 365h-193q-13 0 -22.5 9.5t-9.5 23t9.5 23t22.5 9.5h193q13 0 22.5 -9.5t9.5 -23t-9.5 -23t-22.5 -9.5zM640 172h-386
q-13 0 -22.5 9.5t-9.5 23t9.5 23t22.5 9.5h386q13 0 22.5 -9.5t9.5 -23t-9.5 -23t-22.5 -9.5zM640 172z" />
    <glyph glyph-name="uniE612" unicode="&#xe612;" 
d="M832 0h-640q-27 0 -45.5 18.5t-18.5 45.5v640q0 27 18.5 45.5t45.5 18.5h224q13 0 22.5 -9.5t9.5 -22.5t-9.5 -22.5t-22.5 -9.5h-224v-640h640v224q0 13 9.5 22.5t22.5 9.5t22.5 -9.5t9.5 -22.5v-224q0 -27 -18.5 -45.5t-45.5 -18.5zM864 448q-13 0 -22.5 9.5t-9.5 22.5
v181l-396 -396q-9 -9 -21.5 -9t-21.5 9t-9 21.5t9 21.5l396 396h-181q-13 0 -22.5 9.5t-9.5 22.5t9.5 22.5t22.5 9.5h256q13 0 22.5 -9.5t9.5 -22.5v-256q0 -13 -9.5 -22.5t-22.5 -9.5z" />
    <glyph glyph-name="uniE613" unicode="&#xe613;" 
d="M836 478l-297 358q-5 5 -11.5 5t-11.5 -5l-297 -358q-5 -5 -3 -9t9 -4h175v-494q0 -7 5 -12t12 -5h221q7 0 12 5t5 12v494h175q7 0 9 4t-3 9z" />
    <glyph glyph-name="uniE614" unicode="&#xe614;" 
d="M443 385v192l-64 64v-320h320l-64 64h-192zM379 577l256 -256v-193h64v219l-294 294h-26v-64zM635 0h-449v577h128v64h-192v-705h577v128h-64v-64zM891 604l-229 230h-283v-129h64v65h192l192 -193v-385h-64v-64h128v476zM635 128h64v-64h-64v64zM314 641h65v-64h-65v64z
M699 641v129l-64 64v-257h256l-64 64h-128zM250 513h64v-64h-64v64zM250 385h64v-64h-64v64zM250 257h321v-65h-321v65zM250 128h321v-64h-321v64z" />
    <glyph glyph-name="uniE615" unicode="&#xe615;" 
d="M515 72l-244 339h133v276h221v-276h134zM903 161h-85v-162h-611v162h-86v-248h782v248z" />
    <glyph glyph-name="uniE616" unicode="&#xe616;" 
d="M396 221h-118v117h118v-117zM573 338h-118v-117h118v117zM750 338h-118v-117h118v117zM396 167h-118v-117h118v117zM573 167h-118v-117h118v117zM750 167h-118v-117h118v117zM793 574q0 -15 -10.5 -25.5t-25.5 -10.5t-25.5 10.5t-10.5 25.5v91q0 15 10.5 25.5t25.5 10.5
t25.5 -10.5t10.5 -25.5v-91zM305 665q0 15 -10.5 25.5t-25.5 10.5t-25.5 -10.5t-10.5 -25.5v-91q0 -15 10.5 -25.5t25.5 -10.5t25.5 10.5t10.5 25.5v91zM837 612v-37q0 -33 -23.5 -56t-56.5 -23t-56.5 23t-23.5 56v37h-328v-36q0 -33 -23.5 -56.5t-56.5 -23.5t-56.5 23.5
t-23.5 56.5v36h-87v-713h820v713h-85zM842 -22h-660v443h660v-443z" />
    <glyph glyph-name="uniE617" unicode="&#xe617;" 
d="M512 748q-122 0 -225 -60t-163 -163t-60 -225t60 -225t163 -163t225 -60t225 60t163 163t60 225t-60 225t-163 163t-225 60zM736 151l-75 -75l-149 149l-149 -149l-75 75l149 149l-149 149l75 75l149 -149l149 149l75 -75l-149 -149zM736 151z" />
    <glyph glyph-name="uniE618" unicode="&#xe618;" 
d="M509.5 -123q-103.5 0 -198 40.5t-162.5 108.5t-108.5 162.5t-40.5 197.5q0 102 38.5 195t110.5 166q8 8 19.5 8t19.5 -8t8 -19.5t-8 -19.5q-64 -65 -98.5 -148t-34.5 -174q0 -92 36 -176.5t97 -145t145 -97t176.5 -36.5t177 36.5t145 97t97 145t36.5 176.5
q0 119 -56.5 221t-155 164t-216.5 69v-152q0 -12 -8 -20t-19.5 -8t-19.5 8t-8 20v208h28q102 0 195 -38.5t165 -111t110.5 -165.5t38.5 -195q0 -103 -40.5 -197.5t-108.5 -162.5t-162.5 -108.5t-198 -40.5zM510 319q-28 0 -48 20q-24 24 -210 295l10 10q271 -186 295 -210
q20 -20 20 -48t-19.5 -47.5t-47.5 -19.5z" />
    <glyph glyph-name="uniE619" unicode="&#xe619;" 
d="M512 447q-64 0 -109.5 -46.5t-45.5 -111.5t45.5 -111t109.5 -46q13 0 28 2q9 2 14 9.5t3.5 17t-9 15t-16.5 3.5q-11 -2 -20 -2q-46 0 -78.5 33t-32.5 79.5t32.5 79.5t78.5 33t78.5 -33t32.5 -80q0 -8 -2 -20q-2 -9 3.5 -16.5t14.5 -9.5t16.5 3.5t9.5 14.5q2 16 2 28
q0 65 -45.5 111.5t-109.5 46.5zM971 378q-3 14 -17 18q-76 17 -114.5 85t-15.5 143q4 14 -7 23q-67 59 -152 89q-13 5 -23 -6q-53 -57 -130 -57t-130 57q-10 11 -23 6q-85 -30 -152 -89q-11 -9 -7 -23q23 -75 -15.5 -143t-114.5 -85q-14 -4 -17 -18q-8 -45 -8 -88.5t8 -88.5
q3 -15 17 -18q76 -18 114.5 -85.5t15.5 -142.5q-4 -14 7 -24q67 -59 152 -89q3 -1 7 -1q10 0 16 7q53 58 130 58t130 -58q10 -10 23 -6q84 30 152 89q11 10 7 24q-23 75 15.5 142.5t114.5 85.5q14 3 17 18q8 45 8 88.5t-8 88.5zM929 223q-84 -26 -128 -103t-24 -164
q-51 -42 -113 -66q-64 61 -152 61q-87 0 -152 -61q-62 24 -113 66q20 87 -24 164t-128 103q-6 34 -6 66.5t6 66.5q84 26 128 102.5t24 163.5q51 42 113 67q65 -61 152 -61q88 0 152 61q62 -25 113 -67q-20 -87 24 -163.5t128 -102.5q6 -34 6 -66.5t-6 -66.5z" />
    <glyph glyph-name="uniE61A" unicode="&#xe61a;" 
d="M411 427q-12 0 -20.5 -8.5t-8.5 -20.5t8.5 -20t20.5 -8t20.5 8t8.5 20t-8.5 20.5t-20.5 8.5zM729 341h-6q6 28 6 57q0 73 -31 137t-85 109v14h-19q-70 49 -154 57v59h58v58h-174v-58h58v-59q-122 -11 -205.5 -102t-83.5 -215q0 -131 93 -224t225 -93q62 0 118 23
q13 -72 69 -120t131 -48q83 0 142.5 59.5t59.5 143t-59.5 143t-142.5 59.5zM528 166q-41 -21 -88 -26v56h-58v-56q-90 10 -154.5 74.5t-74.5 155.5h56v57h-56q10 91 74.5 155.5t154.5 74.5v-56h58v56q90 -10 154.5 -74.5t74.5 -155.5h-229v-29v-28h229q-2 -21 -7 -41
q-53 -18 -89.5 -62t-44.5 -101zM728.5 -35q-71.5 0 -122.5 51t-51 122.5t51 122.5t122.5 51t122.5 -51t51 -122.5t-51 -122.5t-122.5 -51zM671 630h29v28v29h-29v29h-29v29h-58v-29h29v-58h58v-28zM832 223l-121 -121l-76 76l-24 -27l100 -100l146 147z" />
    <glyph glyph-name="uniE61B" unicode="&#xe61b;" 
d="M819 689h-614q-34 0 -58 -24t-24 -58v-614q0 -34 24 -58t58 -24h614q34 0 58 24t24 58v614q0 34 -24 58t-58 24zM860 -7q0 -17 -12 -29t-29 -12h-614q-17 0 -29 12t-12 29v614q0 17 12 29t29 12h614q17 0 29 -12t12 -29v-614zM364 348q-10 -15 -44 -62q-29 -40 -40 -43
q-8 -2 -10 -3l11 -37q21 7 37 10q19 3 27 5q31 5 60 10q20 3 33 6l3 33q-38 -9 -118 -23q66 80 120 170l-31 17q-12 -23 -31 -54q-23 -2 -69 -5q27 44 58 113q4 9 18 39l-34 14q-23 -66 -48 -118q-16 -31 -23 -40t-17 -11l9 -33q22 7 89 12zM268 128h-3l8 -39q6 3 24 6
q76 16 146 38l1 34q-53 -20 -122 -32q-40 -7 -54 -7zM558 260l-19 -26q79 -34 132 -69l20 29q-61 36 -133 66zM490 130q70 -17 109.5 -31t99.5 -42l15 33q-101 43 -209 70zM692 431q20 33 25 40l-20 20q-12 -2 -50 -2h-78q5 9 15 28q1 3 2.5 5.5t2.5 5t3 4.5l-33 11
q-10 -39 -41 -81t-71 -72q13 -9 23 -23q31 27 58 59q23 -42 56 -76q-56 -49 -130 -81q10 -10 19 -27q79 38 132 86q33 -28 60.5 -45t74.5 -40q8 19 19 33q-48 20 -73.5 34.5t-56.5 39.5q38 40 63 81zM547 454q4 5 5 7h121q-28 -50 -66 -90q-39 39 -60 83z" />
    <glyph glyph-name="uniE61C" unicode="&#xe61c;" 
d="M608.5 28q-79.5 0 -136 56.5t-56.5 136.5t56.5 136.5t136 56.5t136.5 -56.5t57 -136.5t-57 -136.5t-136.5 -56.5zM608.5 341q-49.5 0 -84.5 -35.5t-35 -85t35 -84.5t84.5 -35t85 35t35.5 84.5t-35.5 85t-85 35.5zM812 38q7 -7 3.5 -19t-14.5 -22t-23.5 -12t-18.5 4
l-66 73q-6 7 -3 19t14 22q12 11 24 13t18 -5zM125 520v28l-28 24l252 289q16 20 40 11t24 -35v-278q0 -15 -10.5 -25.5t-25.5 -10.5zM340 740l-127 -146l127 1v145zM399 -114h-114q-78 0 -133.5 55.5t-55.5 133.5v494l73 83v-577q0 -48 34 -81.5t82 -33.5h114v-74zM739 -114
h-115v74h115q48 0 82 33.5t34 81.5v612q0 47 -34 81t-82 34h-437l64 74h373q78 0 133.5 -55.5t55.5 -133.5v-612q0 -78 -55.5 -133.5t-133.5 -55.5zM390 -40h263v-74h-263v74zM399 423q0 -11 -8 -19.5t-20 -8.5h-119q-11 0 -19 8.5t-8 19.5t8 19t19 8h119q12 0 20 -8t8 -19z
M399 286q0 -12 -8 -20t-20 -8h-119q-11 0 -19 8t-8 20q0 11 8 19t19 8h119q12 0 20 -8t8 -19zM399 150q0 -11 -8 -19t-20 -8h-119q-11 0 -19 8t-8 19t8 19.5t19 8.5h119q12 0 20 -8.5t8 -19.5z" />
    <glyph glyph-name="uniE61D" unicode="&#xe61d;" 
d="M997 542l-485 -485l-485 486z" />
    <glyph glyph-name="uniE61E" unicode="&#xe61e;" 
d="M745 428h-135l-96 -141l-96 141h-135l162 -242l-183 -270h262v92h-60l50 75l111 -167h141l-183 270zM905 612l-143 143q-23 23 -63 40t-73 17h-480q-33 0 -56.5 -23.5t-23.5 -56.5v-864q0 -33 23.5 -56.5t56.5 -23.5h736q33 0 56 23.5t23 56.5v608q0 33 -16.5 73
t-39.5 63zM860 567q4 -5 9 -11h-163v163q6 -5 11 -9zM898 -132q0 -6 -5 -11t-11 -5h-736q-6 0 -11 5t-5 11v864q0 6 5 11t11 5h480q7 0 16 -2v-254h254q2 -9 2 -16v-608z" />
    <glyph glyph-name="uniE61F" unicode="&#xe61f;" 
d="M959 812v-192v192zM462 466h111l79 -362h3l73 362h91l-115 -481h-109l-81 366l-88 -366h-111l-111 481h101l69 -362zM771 812h-620q-36 0 -61.5 -25.5t-25.5 -61.5v-849q0 -36 25.5 -61.5t61.5 -25.5h721q36 0 61.5 25.5t25.5 61.5v744zM895 -78q0 -29 -20 -49t-49 -20
h-628q-29 0 -49.5 20t-20.5 49v756q0 29 20.5 49.5t49.5 20.5h506v-192h191v-634z" />
    <glyph glyph-name="uniE620" unicode="&#xe620;" 
d="M815.5 187q-4.5 0 -8 -3t-3.5 -8v-23q0 -4 3.5 -7.5t8 -3.5t8 3.5t3.5 7.5v23q0 5 -3.5 8t-8 3zM817 119q-11 2 -13 -9q-3 -16 -15.5 -26.5t-29.5 -10.5h-90q-5 0 -8 -3.5t-3 -8t3 -8t8 -3.5h90q25 0 43.5 16t23.5 40q2 11 -9 13zM779 793h-68v46q0 9 -6.5 15.5t-16 6.5
t-16 -6.5t-6.5 -15.5v-46h-339v46q0 9 -6.5 15.5t-16 6.5t-16 -6.5t-6.5 -15.5v-46h-68q-56 0 -96 -40t-40 -96v-565q0 -56 40 -96t96 -40h565q56 0 96 40t40 96v565q0 56 -40 96t-96 40zM214 748h68v-22q0 -10 6.5 -16.5t16 -6.5t16 6.5t6.5 16.5v22h339v-22
q0 -10 6.5 -16.5t16 -6.5t16 6.5t6.5 16.5v22h68q38 0 64.5 -26.5t26.5 -64.5v-88h-747v88q0 38 26.5 64.5t64.5 26.5zM779 1h-565q-38 0 -64.5 26.5t-26.5 64.5v454h747v-454q0 -38 -26.5 -64.5t-64.5 -26.5zM474 170v275q0 10 7 14q7 5 17 5t17 -5q7 -4 7 -14v-90h104
q10 0 14 -7q5 -8 5 -18q0 -9 -5 -16q-5 -8 -14 -8h-104v-136h123q9 0 14 -7q4 -7 4 -17t-4 -17q-5 -7 -14 -7h-313q-10 0 -14 7q-5 8 -5 18t4 16q5 7 15 7h41v196q0 9 7 14q7 4 17 4t17 -4q7 -5 7 -14v-196h53z" />
    <glyph glyph-name="uniE621" unicode="&#xe621;" 
d="M619 -148h-504q-21 0 -36 15.5t-15 37.5v580l251 263h370q24 2 39 -13t12 -37v-300v-46h-60h-10v46v280h-336v-210h-196v-546h485v-70zM960 140h-160v160h-127v-160h-161v-127h160v-161h128v160h160v128z" />
    <glyph glyph-name="uniE622" unicode="&#xe622;" 
d="M803 -212h-659q-46 0 -78 32t-32 78v733q0 46 32 78t78 32h513q22 0 31 -18.5t0 -36.5t-31 -18h-513q-15 0 -26 -11t-11 -26v-733q0 -15 11 -26t26 -11h659q15 0 26 11t11 26v586q0 23 18.5 32t36.5 0t18 -32v-586q0 -46 -32 -78t-78 -32zM562 385q-23 26 0 52l364 365
q11 10 26 10t27 -10q19 -21 5 -45l-5 -8l-364 -364q-12 -11 -27 -11t-26 11zM437 374h-220q-22 0 -31 18.5t0 37t31 18.5h220v-74zM657 155h-440q-22 0 -31 18t0 36.5t31 18.5h440q22 0 31 -18.5t0 -36.5t-31 -18z" />
    <glyph glyph-name="uniE623" unicode="&#xe623;" 
d="M643 423q-1 4 -1.5 4.5t-2.5 4t-4 4.5q0 1 -1 1l-126 102l-1 1h-2q-3 2 -5 3q-2 0 -5 1q-1 0 -2 0.5t-2 0.5h-162q-22 0 -37.5 -15.5t-15.5 -37.5v-336q0 -22 15.5 -37.5t37.5 -15.5h263q22 0 37.5 15.5t15.5 37.5v260h-1v1q0 2 -1 6zM519 458l21 -17l-21 -1v18zM589 159
l-257 -3l-3 333h134v-49q0 -21 15.5 -36.5t37.5 -15.5h73v-229zM753 831h-453q-14 0 -24 -9.5t-10 -23.5t10 -24t24 -10h453q58 0 98.5 -40.5t40.5 -98.5v-453q0 -14 10 -24t24 -10t23.5 10t9.5 24v453q0 86 -60.5 146t-145.5 60zM703 711h-502q-57 0 -96.5 -40t-39.5 -96
v-503q0 -56 39.5 -95.5t96.5 -39.5h502q56 0 96 39.5t40 95.5v503q0 56 -40 96t-96 40zM772 72q0 -28 -20 -48t-49 -20h-502q-29 0 -49 20t-20 48v503q0 29 20 49t49 20h502q29 0 49 -20t20 -49v-503z" />
    <glyph glyph-name="uniE624" unicode="&#xe624;" 
d="M923 242q0 1 -0.5 2t-0.5 2q1 -3 1 -4zM204 140v354h146v134h341v-137h76v213h-65h-11h-341h-72h-27l-123 -122v-25v-63v-354v-76h76h301v76h-301zM896 91q0 -11 -8.5 -19t-20.5 -8h-290q-12 0 -20.5 8t-8.5 19q0 40 34 75.5t79 51.5q-25 14 -40 39t-15 54v27q0 46 34 78
t82 32t82 -32t34 -78v-27q0 -29 -15 -54t-40 -39q45 -16 79 -51.5t34 -75.5zM896 91z" />
    <glyph glyph-name="uniE625" unicode="&#xe625;" 
d="M163 750h-50v-732h798v50h-748v682zM529 708q0 13 -10.5 23.5t-23.5 10.5h-67q-13 0 -22 -9t-9 -22v-610h132v607zM337 525q0 14 -7 24t-19 10h-65q-13 0 -23 -10.5t-10 -23.5v-424h124v424zM720 359q0 14 -7 23.5t-19 9.5h-66q-12 0 -22.5 -10t-10.5 -23v-258h125v258z
M885 218h-65q-13 0 -23.5 -10.5t-10.5 -23.5v-83h125v83q0 14 -7 24t-19 10z" />
    <glyph glyph-name="uniE626" unicode="&#xe626;" 
d="M211 -54q-45 0 -77 32t-32 78v656q0 46 32 78t77 32h602q45 0 77 -32t32 -78v-656q0 -46 -32 -78t-77 -32h-602zM868 83v602q0 34 -24 58t-58 24h-548q-34 0 -58 -24t-24 -58v-602q0 -34 24 -58t58 -24h548q34 0 58 24t24 58zM690 193q-6 0 -10 4t-4 9v246q0 6 4 10t10 4
h27q6 0 10 -4t4 -10v-246q0 -5 -4 -9t-10 -4h-27zM690 493q-6 0 -10 4t-4 10v55q0 5 4 9t10 4h27q6 0 10 -4t4 -9v-55q0 -6 -4 -10t-10 -4h-27zM553 193q-6 0 -10 4t-4 9v151h-191v-151q0 -5 -4 -9t-10 -4h-27q-6 0 -10 4t-4 9v164v28v164q0 5 4 9t10 4h27q6 0 10 -4t4 -9
v-151h191v151q0 5 4 9t10 4h27q6 0 10 -4t4 -9v-356q0 -5 -4 -9t-10 -4h-27z" />
    <glyph glyph-name="uniE627" unicode="&#xe627;" 
d="M954 -114l-284 284q88 99 88 231q0 94 -46.5 173.5t-126 126t-174 46.5t-174 -46.5t-126 -126t-46.5 -174t46.5 -174t126 -126t174.5 -46.5q131 0 229 87l284 -284q6 -5 14.5 -5t14.5 6t6 14.5t-6 13.5zM106 400.5q0 126.5 89.5 216t216 89.5t216 -89.5t89.5 -216
t-89.5 -216t-216 -89.5t-216 89.5t-89.5 216z" />
    <glyph glyph-name="uniE628" unicode="&#xe628;" 
d="M953.5 534q-9.5 9 -22.5 9t-22 -9l-398 -398l-397 396q-9 9 -22 9t-22 -9t-9 -22t9 -22l418 -419q10 -9 23 -9t22 9l420 421q10 9 10 22t-9.5 22z" />
    <glyph glyph-name="uniE629" unicode="&#xe629;" 
d="M389 399l-72 -66l221 -220l486 486l-67 67l-419 -415zM927 -31h-681v681h486v98h-486q-39 0 -68.5 -29.5t-29.5 -68.5v-681q0 -38 29.5 -67.5t68.5 -29.5h681q38 0 67.5 29.5t29.5 67.5v389h-97v-389zM927 -31zM241 507zM461 727zM97 799h415v97h-415q-38 0 -67.5 -29.5
t-29.5 -67.5v-415h97v415z" />
    <glyph glyph-name="uniE62A" unicode="&#xe62a;" 
d="M64 -64v896h896v-896h-896zM0 896v-64v-896v-64h64h896h64v64v896v64h-64h-896h-64zM832 640h-640v-64h640v64z" />
    <glyph glyph-name="uniE62B" unicode="&#xe62b;" 
d="M435 717q-76 0 -114.5 -41.5t-38.5 -112.5h51q1 47 29 74t73 29q74 -3 76 -78q0 -37 -53 -86q-29 -26 -38.5 -47t-9.5 -45v-52h51v52q0 30 37 65q64 56 64 113q0 58 -33.5 93.5t-93.5 35.5zM410 256h51v51h-51v-51zM845 419v355q-1 3 -2 7.5t-6 17t-12.5 21.5t-22.5 17
t-34 8h-717v-733q1 -2 2 -6t7.5 -14.5t16.5 -18.5t30.5 -14.5t46.5 -7.5h44h52h53h51h42h29q11 0 10 0q-5 0 97.5 92t207.5 184.5t105 91.5zM410 102q-237 1 -256 0q-27 -1 -39.5 14t-13 28t0.5 16v637h666q10 0 15.5 -2.5t8 -8.5t3 -10.5t0 -13.5t-0.5 -12v-307zM957 276
l-89 83l-16 14l-15 -14l-67 -63l-245 -228l-5 -4l-1 -6l-33 -135l148 27l7 1l5 5l244 228l67 62l16 15zM619 -10l-72 -14l14 67l225 209l57 -53zM875 228l-58 54l35 33l58 -54z" />
    <glyph glyph-name="uniE62C" unicode="&#xe62c;" 
d="M43 657h936v-88h-936v88zM355 746h312v-99h-312v99zM131 479h89v-571h-89v571zM354 478h89v-571h-89v571zM578 478h89v-571h-89v571zM800 478h89v-571h-89v571zM131 -56h758v-87h-758v87z" />
    <glyph glyph-name="uniE62D" unicode="&#xe62d;" 
d="M224 510q-5 0 -5 4v76q0 4 5 4h373q5 0 5 -4v-76q0 -5 -5 -5h-373v1zM538 342q5 0 5 5v75q0 5 -5 5h-314q-5 0 -5 -5v-75q0 -5 5 -5h314zM966 544v-623q0 -31 -22 -53t-52 -22h-760q-30 0 -52 22t-22 53v758q0 31 22 53t52 22h585q19 0 35 -12l194 -157q20 -16 20 -41z
M889 533h-182q-7 0 -7 6v138h-566v-754h755v610zM224 91q-5 0 -5 -5v-75q0 -5 5 -5h471q5 0 5 5v75q0 5 -5 5h-471zM219 254v-75q0 -5 5 -5h575q5 0 5 5v75q0 5 -5 5h-575q-5 0 -5 -5z" />
    <glyph glyph-name="uniE62E" unicode="&#xe62e;" 
d="M527 413l66 -66q13 17 31 29l-72 72q-9 -20 -25 -35zM788 553l-70 -158q21 -4 40 -15l68 153q-20 7 -38 20zM695 180q36 0 61 25.5t25 61.5t-25 61t-61 25t-61.5 -25t-25.5 -61t25.5 -61.5t61.5 -25.5zM695 310q18 0 30.5 -12.5t12.5 -30.5t-12.5 -30.5t-30.5 -12.5
t-30.5 12.5t-12.5 30.5t12.5 30.5t30.5 12.5zM867.5 569q35.5 0 61 25.5t25.5 61.5t-25.5 61t-61 25t-61 -25t-25.5 -61t25.5 -61.5t61 -25.5zM867.5 699q17.5 0 30.5 -12.5t13 -30.5t-13 -30.5t-30.5 -12.5t-30.5 12.5t-13 30.5t13 30.5t30.5 12.5zM327 435l-92 -109
q17 -14 29 -33l92 110q-18 13 -29 32zM242 223.5q0 35.5 -25.5 61t-61.5 25.5t-61 -25.5t-25 -61t25 -61t61 -25.5t61.5 25.5t25.5 61zM112 223.5q0 17.5 12.5 30.5t30.5 13t30.5 -13t12.5 -30.5t-12.5 -30.5t-30.5 -13t-30.5 13t-12.5 30.5zM889 115q0 -17 -12.5 -30
t-30.5 -13h-604q-15 0 -26 8.5t-16 21.5q-21 -8 -45 -8q0 -27 19 -46t46 -19h647q27 0 46 19t19 46v450q-20 -12 -43 -16v-413zM198 634q0 18 13 31t31 13h498q4 23 15 43h-535q-27 0 -46 -19t-19 -46v-303q22 0 43 -7v288zM436 418q36 0 61 25.5t25 61t-25 61t-61 25.5
t-61.5 -25.5t-25.5 -61t25.5 -61t61.5 -25.5zM436 548q18 0 30.5 -12.5t12.5 -30.5t-12.5 -31t-30.5 -13t-30.5 13t-12.5 31t12.5 30.5t30.5 12.5z" />
  </font>
</defs>
</svg>
